<svg width="210" height="70" viewBox="0 0 210 70" fill="none" xmlns="http://www.w3.org/2000/svg">
<rect x="2" y="2" width="206" height="66" rx="33" stroke="white" stroke-width="4"/>
<path d="M43.4631 26.0455V43.5H40.3267V28.6705H32.6903V43.5H29.554V26.0455H43.4631ZM55.2189 43.7557C53.9405 43.7557 52.8325 43.4744 51.895 42.9119C50.9575 42.3494 50.2303 41.5625 49.7132 40.5511C49.2018 39.5398 48.9462 38.358 48.9462 37.0057C48.9462 35.6534 49.2018 34.4687 49.7132 33.4517C50.2303 32.4347 50.9575 31.6449 51.895 31.0824C52.8325 30.5199 53.9405 30.2386 55.2189 30.2386C56.4973 30.2386 57.6053 30.5199 58.5428 31.0824C59.4803 31.6449 60.2047 32.4347 60.7161 33.4517C61.2331 34.4687 61.4916 35.6534 61.4916 37.0057C61.4916 38.358 61.2331 39.5398 60.7161 40.5511C60.2047 41.5625 59.4803 42.3494 58.5428 42.9119C57.6053 43.4744 56.4973 43.7557 55.2189 43.7557ZM55.2359 41.2841C55.9291 41.2841 56.5087 41.0937 56.9746 40.7131C57.4405 40.3267 57.7871 39.8097 58.0143 39.1619C58.2473 38.5142 58.3638 37.7926 58.3638 36.9972C58.3638 36.196 58.2473 35.4716 58.0143 34.8239C57.7871 34.1705 57.4405 33.6506 56.9746 33.2642C56.5087 32.8778 55.9291 32.6847 55.2359 32.6847C54.5257 32.6847 53.9348 32.8778 53.4632 33.2642C52.9973 33.6506 52.6479 34.1705 52.4149 34.8239C52.1876 35.4716 52.074 36.196 52.074 36.9972C52.074 37.7926 52.1876 38.5142 52.4149 39.1619C52.6479 39.8097 52.9973 40.3267 53.4632 40.7131C53.9348 41.0937 54.5257 41.2841 55.2359 41.2841ZM65.3511 47.3011V40.9602H66.3909C66.6693 40.7443 66.9023 40.4517 67.0898 40.0824C67.2773 39.7074 67.4307 39.267 67.55 38.7614C67.675 38.25 67.7773 37.679 67.8568 37.0483C67.9364 36.4119 68.0074 35.7273 68.0699 34.9943L68.4449 30.4091H77.9051V40.9602H79.9335V47.3011H76.9506V43.5H68.3852V47.3011H65.3511ZM69.5614 40.9602H74.9562V32.8977H71.121L70.9165 34.9943C70.8028 36.3807 70.6523 37.5682 70.4648 38.5568C70.2773 39.5455 69.9761 40.3466 69.5614 40.9602ZM84.6368 48.4091V30.4091H87.6709V32.5739H87.8499C88.0089 32.2557 88.2334 31.9176 88.5232 31.5597C88.8129 31.196 89.205 30.8864 89.6993 30.6307C90.1936 30.3693 90.8243 30.2386 91.5913 30.2386C92.6027 30.2386 93.5146 30.4972 94.3271 31.0142C95.1453 31.5256 95.793 32.2841 96.2703 33.2898C96.7533 34.2898 96.9947 35.517 96.9947 36.9716C96.9947 38.4091 96.759 39.6307 96.2874 40.6364C95.8158 41.642 95.1737 42.4091 94.3612 42.9375C93.5487 43.4659 92.6283 43.7301 91.5999 43.7301C90.8499 43.7301 90.2277 43.6051 89.7334 43.3551C89.2391 43.1051 88.8413 42.804 88.5402 42.4517C88.2447 42.0937 88.0146 41.7557 87.8499 41.4375H87.722V48.4091H84.6368ZM87.6624 36.9545C87.6624 37.8011 87.7817 38.5426 88.0203 39.179C88.2646 39.8153 88.6141 40.3125 89.0686 40.6705C89.5288 41.0227 90.0857 41.1989 90.7391 41.1989C91.4209 41.1989 91.9919 41.017 92.4521 40.6534C92.9124 40.2841 93.2589 39.7812 93.4919 39.1449C93.7305 38.5028 93.8499 37.7727 93.8499 36.9545C93.8499 36.142 93.7334 35.4205 93.5004 34.7898C93.2675 34.1591 92.9209 33.6648 92.4607 33.3068C92.0004 32.9489 91.4266 32.7699 90.7391 32.7699C90.08 32.7699 89.5203 32.9432 89.0601 33.2898C88.5999 33.6364 88.2504 34.1222 88.0118 34.7472C87.7788 35.3722 87.6624 36.108 87.6624 36.9545ZM107.747 43.7557C106.469 43.7557 105.361 43.4744 104.423 42.9119C103.486 42.3494 102.758 41.5625 102.241 40.5511C101.73 39.5398 101.474 38.358 101.474 37.0057C101.474 35.6534 101.73 34.4687 102.241 33.4517C102.758 32.4347 103.486 31.6449 104.423 31.0824C105.361 30.5199 106.469 30.2386 107.747 30.2386C109.025 30.2386 110.133 30.5199 111.071 31.0824C112.008 31.6449 112.733 32.4347 113.244 33.4517C113.761 34.4687 114.02 35.6534 114.02 37.0057C114.02 38.358 113.761 39.5398 113.244 40.5511C112.733 41.5625 112.008 42.3494 111.071 42.9119C110.133 43.4744 109.025 43.7557 107.747 43.7557ZM107.764 41.2841C108.457 41.2841 109.037 41.0937 109.503 40.7131C109.969 40.3267 110.315 39.8097 110.542 39.1619C110.775 38.5142 110.892 37.7926 110.892 36.9972C110.892 36.196 110.775 35.4716 110.542 34.8239C110.315 34.1705 109.969 33.6506 109.503 33.2642C109.037 32.8778 108.457 32.6847 107.764 32.6847C107.054 32.6847 106.463 32.8778 105.991 33.2642C105.525 33.6506 105.176 34.1705 104.943 34.8239C104.716 35.4716 104.602 36.196 104.602 36.9972C104.602 37.7926 104.716 38.5142 104.943 39.1619C105.176 39.8097 105.525 40.3267 105.991 40.7131C106.463 41.0937 107.054 41.2841 107.764 41.2841ZM129.53 25.5682L130.604 27.5625C130.223 27.892 129.797 28.1307 129.325 28.2784C128.854 28.4261 128.3 28.5227 127.663 28.5682C127.033 28.608 126.283 28.6364 125.413 28.6534C124.436 28.6761 123.638 28.8608 123.018 29.2074C122.399 29.554 121.925 30.0795 121.595 30.7841C121.266 31.483 121.05 32.375 120.947 33.4602H121.092C121.501 32.6591 122.075 32.0483 122.814 31.6278C123.553 31.2074 124.419 30.9972 125.413 30.9972C126.499 30.9972 127.456 31.2415 128.286 31.7301C129.121 32.2131 129.771 32.9148 130.237 33.8352C130.709 34.7557 130.945 35.8693 130.945 37.1761C130.945 38.5227 130.692 39.6903 130.186 40.679C129.68 41.6619 128.962 42.4205 128.03 42.9545C127.104 43.4886 126.004 43.7557 124.732 43.7557C123.464 43.7557 122.362 43.4801 121.425 42.929C120.493 42.3722 119.771 41.5511 119.26 40.4659C118.754 39.375 118.501 38.0312 118.501 36.4347V35.2585C118.501 32.179 119.075 29.8807 120.223 28.3636C121.371 26.8466 123.072 26.0739 125.328 26.0455C125.999 26.0341 126.598 26.0312 127.126 26.0369C127.661 26.0426 128.126 26.017 128.524 25.9602C128.922 25.9034 129.257 25.7727 129.53 25.5682ZM124.749 41.2841C125.379 41.2841 125.925 41.1222 126.385 40.7983C126.845 40.4687 127.197 40.0028 127.442 39.4006C127.692 38.7983 127.817 38.0852 127.817 37.2614C127.817 36.4489 127.692 35.7585 127.442 35.1903C127.192 34.6165 126.837 34.179 126.376 33.8778C125.916 33.5767 125.368 33.4261 124.732 33.4261C124.254 33.4261 123.825 33.5114 123.445 33.6818C123.064 33.8523 122.74 34.1023 122.473 34.4318C122.206 34.7614 122.001 35.1619 121.859 35.6335C121.717 36.1051 121.641 36.6477 121.629 37.2614C121.629 38.4943 121.908 39.4744 122.464 40.2017C123.021 40.9233 123.783 41.2841 124.749 41.2841ZM144.961 35.6761V38.2074H137.989V35.6761H144.961ZM138.944 30.4091V43.5H135.97V30.4091H138.944ZM146.981 30.4091V43.5H144.015V30.4091H146.981ZM158.298 43.7557C156.985 43.7557 155.852 43.483 154.897 42.9375C153.948 42.3864 153.218 41.608 152.707 40.6023C152.196 39.5909 151.94 38.4006 151.94 37.0312C151.94 35.6847 152.196 34.5028 152.707 33.4858C153.224 32.4631 153.946 31.6676 154.872 31.0994C155.798 30.5256 156.886 30.2386 158.136 30.2386C158.943 30.2386 159.704 30.3693 160.42 30.6307C161.142 30.8864 161.778 31.2841 162.329 31.8239C162.886 32.3636 163.323 33.0511 163.642 33.8864C163.96 34.7159 164.119 35.7045 164.119 36.8523V37.7983H153.389V35.7188H161.162C161.156 35.1278 161.028 34.6023 160.778 34.142C160.528 33.6761 160.179 33.3097 159.73 33.0426C159.287 32.7756 158.769 32.642 158.179 32.642C157.548 32.642 156.994 32.7955 156.517 33.1023C156.039 33.4034 155.667 33.8011 155.4 34.2955C155.139 34.7841 155.005 35.321 155 35.9062V37.7216C155 38.483 155.139 39.1364 155.417 39.6818C155.696 40.2216 156.085 40.6364 156.585 40.9261C157.085 41.2102 157.67 41.3523 158.34 41.3523C158.789 41.3523 159.196 41.2898 159.559 41.1648C159.923 41.0341 160.238 40.8438 160.505 40.5938C160.772 40.3438 160.974 40.0341 161.11 39.6648L163.991 39.9886C163.809 40.75 163.463 41.4148 162.951 41.983C162.446 42.5455 161.798 42.983 161.008 43.2955C160.218 43.6023 159.315 43.7557 158.298 43.7557ZM174.924 43.7557C173.612 43.7557 172.478 43.483 171.524 42.9375C170.575 42.3864 169.845 41.608 169.334 40.6023C168.822 39.5909 168.566 38.4006 168.566 37.0312C168.566 35.6847 168.822 34.5028 169.334 33.4858C169.851 32.4631 170.572 31.6676 171.498 31.0994C172.424 30.5256 173.512 30.2386 174.762 30.2386C175.569 30.2386 176.331 30.3693 177.047 30.6307C177.768 30.8864 178.405 31.2841 178.956 31.8239C179.512 32.3636 179.95 33.0511 180.268 33.8864C180.586 34.7159 180.745 35.7045 180.745 36.8523V37.7983H170.015V35.7188H177.788C177.782 35.1278 177.655 34.6023 177.405 34.142C177.155 33.6761 176.805 33.3097 176.356 33.0426C175.913 32.7756 175.396 32.642 174.805 32.642C174.174 32.642 173.62 32.7955 173.143 33.1023C172.666 33.4034 172.294 33.8011 172.027 34.2955C171.765 34.7841 171.632 35.321 171.626 35.9062V37.7216C171.626 38.483 171.765 39.1364 172.044 39.6818C172.322 40.2216 172.711 40.6364 173.211 40.9261C173.711 41.2102 174.297 41.3523 174.967 41.3523C175.416 41.3523 175.822 41.2898 176.186 41.1648C176.549 41.0341 176.865 40.8438 177.132 40.5938C177.399 40.3438 177.601 40.0341 177.737 39.6648L180.618 39.9886C180.436 40.75 180.089 41.4148 179.578 41.983C179.072 42.5455 178.424 42.983 177.635 43.2955C176.845 43.6023 175.941 43.7557 174.924 43.7557Z" fill="white"/>
</svg>
