<svg width="210" height="70" viewBox="0 0 210 70" fill="none" xmlns="http://www.w3.org/2000/svg">
<rect x="2" y="2" width="206" height="66" rx="33" stroke="#FFFFD9" stroke-width="4"/>
<path d="M84.3182 34.7727C84.3182 36.6534 83.9659 38.2642 83.2614 39.6051C82.5625 40.9403 81.608 41.9631 80.3977 42.6733C79.1932 43.3835 77.8267 43.7386 76.2983 43.7386C74.7699 43.7386 73.4006 43.3835 72.1903 42.6733C70.9858 41.9574 70.0313 40.9318 69.3267 39.5966C68.6278 38.2557 68.2784 36.6477 68.2784 34.7727C68.2784 32.892 68.6278 31.2841 69.3267 29.9489C70.0313 28.608 70.9858 27.5824 72.1903 26.8722C73.4006 26.1619 74.7699 25.8068 76.2983 25.8068C77.8267 25.8068 79.1932 26.1619 80.3977 26.8722C81.608 27.5824 82.5625 28.608 83.2614 29.9489C83.9659 31.2841 84.3182 32.892 84.3182 34.7727ZM81.1392 34.7727C81.1392 33.4489 80.9318 32.3324 80.517 31.4233C80.108 30.5085 79.5398 29.8182 78.8125 29.3523C78.0852 28.8807 77.2472 28.6449 76.2983 28.6449C75.3494 28.6449 74.5114 28.8807 73.7841 29.3523C73.0568 29.8182 72.4858 30.5085 72.071 31.4233C71.6619 32.3324 71.4574 33.4489 71.4574 34.7727C71.4574 36.0966 71.6619 37.2159 72.071 38.1307C72.4858 39.0398 73.0568 39.7301 73.7841 40.2017C74.5114 40.6676 75.3494 40.9006 76.2983 40.9006C77.2472 40.9006 78.0852 40.6676 78.8125 40.2017C79.5398 39.7301 80.108 39.0398 80.517 38.1307C80.9318 37.2159 81.1392 36.0966 81.1392 34.7727ZM106.916 35.6761V38.2074H99.9442V35.6761H106.916ZM100.899 30.4091V43.5H97.9243V30.4091H100.899ZM108.936 30.4091V43.5H105.97V30.4091H108.936ZM118.224 43.7642C117.395 43.7642 116.647 43.6165 115.983 43.321C115.324 43.0199 114.801 42.5767 114.414 41.9915C114.034 41.4062 113.843 40.6847 113.843 39.8267C113.843 39.0881 113.98 38.4773 114.253 37.9943C114.525 37.5114 114.897 37.125 115.369 36.8352C115.841 36.5455 116.372 36.3267 116.963 36.179C117.559 36.0256 118.176 35.9148 118.812 35.8466C119.579 35.767 120.201 35.696 120.679 35.6335C121.156 35.5653 121.503 35.4631 121.718 35.3267C121.94 35.1847 122.051 34.9659 122.051 34.6705V34.6193C122.051 33.9773 121.861 33.4801 121.48 33.1278C121.099 32.7756 120.551 32.5994 119.835 32.5994C119.079 32.5994 118.48 32.7642 118.037 33.0938C117.599 33.4233 117.304 33.8125 117.15 34.2614L114.27 33.8523C114.497 33.0568 114.872 32.392 115.395 31.858C115.917 31.3182 116.557 30.9148 117.312 30.6477C118.068 30.375 118.903 30.2386 119.818 30.2386C120.449 30.2386 121.076 30.3125 121.701 30.4602C122.326 30.608 122.897 30.8523 123.414 31.1932C123.932 31.5284 124.346 31.9858 124.659 32.5653C124.977 33.1449 125.136 33.8693 125.136 34.7386V43.5H122.17V41.7017H122.068C121.88 42.0653 121.616 42.4062 121.275 42.7244C120.94 43.0369 120.517 43.2898 120.005 43.483C119.5 43.6705 118.906 43.7642 118.224 43.7642ZM119.025 41.4972C119.645 41.4972 120.182 41.375 120.636 41.1307C121.091 40.8807 121.44 40.5511 121.684 40.142C121.934 39.733 122.059 39.2869 122.059 38.804V37.2614C121.963 37.3409 121.798 37.4148 121.565 37.483C121.338 37.5511 121.082 37.6108 120.798 37.6619C120.514 37.7131 120.233 37.7585 119.954 37.7983C119.676 37.8381 119.434 37.8722 119.23 37.9006C118.77 37.9631 118.358 38.0653 117.994 38.2074C117.63 38.3494 117.343 38.5483 117.133 38.804C116.923 39.054 116.818 39.3778 116.818 39.7756C116.818 40.3438 117.025 40.7727 117.44 41.0625C117.855 41.3523 118.383 41.4972 119.025 41.4972ZM136.349 43.7557C135.042 43.7557 133.92 43.4688 132.982 42.8949C132.05 42.321 131.332 41.5284 130.826 40.517C130.326 39.5 130.076 38.3295 130.076 37.0057C130.076 35.6761 130.332 34.5028 130.843 33.4858C131.354 32.4631 132.076 31.6676 133.008 31.0994C133.945 30.5256 135.053 30.2386 136.332 30.2386C137.394 30.2386 138.334 30.4347 139.153 30.8267C139.976 31.2131 140.633 31.7614 141.121 32.4716C141.61 33.1761 141.888 34 141.957 34.9432H139.008C138.888 34.3125 138.604 33.7869 138.155 33.3665C137.712 32.9403 137.118 32.7273 136.374 32.7273C135.743 32.7273 135.189 32.8977 134.712 33.2386C134.235 33.5739 133.863 34.0568 133.596 34.6875C133.334 35.3182 133.204 36.0739 133.204 36.9545C133.204 37.8466 133.334 38.6136 133.596 39.2557C133.857 39.892 134.224 40.3835 134.695 40.7301C135.172 41.071 135.732 41.2415 136.374 41.2415C136.829 41.2415 137.235 41.1562 137.593 40.9858C137.957 40.8097 138.261 40.5568 138.505 40.2273C138.749 39.8977 138.917 39.4972 139.008 39.0256H141.957C141.883 39.9517 141.61 40.7727 141.138 41.4886C140.667 42.1989 140.025 42.7557 139.212 43.1591C138.4 43.5568 137.445 43.7557 136.349 43.7557Z" fill="#FFFFD9"/>
</svg>
