<svg width="210" height="70" viewBox="0 0 210 70" fill="none" xmlns="http://www.w3.org/2000/svg">
<rect x="2" y="2" width="206" height="66" rx="33" stroke="white" stroke-width="4"/>
<path d="M61.679 43.5L55.9347 35.8722H54.3835V43.5H51.2216V26.0455H54.3835V33.2216H55.1761L61.3807 26.0455H65.2756L58.3807 34.0057L65.5739 43.5H61.679ZM73.7523 43.7642C72.9227 43.7642 72.1756 43.6165 71.5108 43.321C70.8517 43.0199 70.329 42.5767 69.9426 41.9915C69.5619 41.4062 69.3716 40.6847 69.3716 39.8267C69.3716 39.0881 69.508 38.4773 69.7807 37.9943C70.0534 37.5114 70.4256 37.125 70.8972 36.8352C71.3687 36.5455 71.9 36.3267 72.4909 36.179C73.0875 36.0256 73.704 35.9148 74.3403 35.8466C75.1074 35.767 75.7295 35.696 76.2068 35.6335C76.6841 35.5653 77.0307 35.4631 77.2466 35.3267C77.4682 35.1847 77.579 34.9659 77.579 34.6705V34.6193C77.579 33.9773 77.3886 33.4801 77.008 33.1278C76.6273 32.7756 76.079 32.5994 75.3631 32.5994C74.6074 32.5994 74.008 32.7642 73.5648 33.0938C73.1273 33.4233 72.8318 33.8125 72.6784 34.2614L69.7977 33.8523C70.025 33.0568 70.4 32.392 70.9227 31.858C71.4455 31.3182 72.0847 30.9148 72.8403 30.6477C73.596 30.375 74.4312 30.2386 75.346 30.2386C75.9767 30.2386 76.6045 30.3125 77.2295 30.4602C77.8545 30.608 78.4256 30.8523 78.9426 31.1932C79.4597 31.5284 79.8744 31.9858 80.1869 32.5653C80.5051 33.1449 80.6642 33.8693 80.6642 34.7386V43.5H77.6983V41.7017H77.596C77.4085 42.0653 77.1443 42.4062 76.8034 42.7244C76.4682 43.0369 76.0449 43.2898 75.5335 43.483C75.0278 43.6705 74.4341 43.7642 73.7523 43.7642ZM74.5534 41.4972C75.1727 41.4972 75.7097 41.375 76.1642 41.1307C76.6187 40.8807 76.9682 40.5511 77.2125 40.142C77.4625 39.733 77.5875 39.2869 77.5875 38.804V37.2614C77.4909 37.3409 77.3261 37.4148 77.0932 37.483C76.8659 37.5511 76.6102 37.6108 76.3261 37.6619C76.042 37.7131 75.7608 37.7585 75.4824 37.7983C75.204 37.8381 74.9625 37.8722 74.758 37.9006C74.2977 37.9631 73.8858 38.0653 73.5222 38.2074C73.1585 38.3494 72.8716 38.5483 72.6614 38.804C72.4511 39.054 72.346 39.3778 72.346 39.7756C72.346 40.3438 72.5534 40.7727 72.9682 41.0625C73.383 41.3523 73.9114 41.4972 74.5534 41.4972ZM84.7006 32.9403V30.4091H96.1551V32.9403H91.9193V43.5H88.9364V32.9403H84.7006ZM104.24 43.7642C103.41 43.7642 102.663 43.6165 101.998 43.321C101.339 43.0199 100.816 42.5767 100.43 41.9915C100.049 41.4062 99.8591 40.6847 99.8591 39.8267C99.8591 39.0881 99.9955 38.4773 100.268 37.9943C100.541 37.5114 100.913 37.125 101.385 36.8352C101.856 36.5455 102.388 36.3267 102.978 36.179C103.575 36.0256 104.191 35.9148 104.828 35.8466C105.595 35.767 106.217 35.696 106.694 35.6335C107.172 35.5653 107.518 35.4631 107.734 35.3267C107.956 35.1847 108.066 34.9659 108.066 34.6705V34.6193C108.066 33.9773 107.876 33.4801 107.495 33.1278C107.115 32.7756 106.566 32.5994 105.851 32.5994C105.095 32.5994 104.495 32.7642 104.052 33.0938C103.615 33.4233 103.319 33.8125 103.166 34.2614L100.285 33.8523C100.513 33.0568 100.888 32.392 101.41 31.858C101.933 31.3182 102.572 30.9148 103.328 30.6477C104.084 30.375 104.919 30.2386 105.834 30.2386C106.464 30.2386 107.092 30.3125 107.717 30.4602C108.342 30.608 108.913 30.8523 109.43 31.1932C109.947 31.5284 110.362 31.9858 110.674 32.5653C110.993 33.1449 111.152 33.8693 111.152 34.7386V43.5H108.186V41.7017H108.084C107.896 42.0653 107.632 42.4062 107.291 42.7244C106.956 43.0369 106.532 43.2898 106.021 43.483C105.515 43.6705 104.922 43.7642 104.24 43.7642ZM105.041 41.4972C105.66 41.4972 106.197 41.375 106.652 41.1307C107.106 40.8807 107.456 40.5511 107.7 40.142C107.95 39.733 108.075 39.2869 108.075 38.804V37.2614C107.978 37.3409 107.814 37.4148 107.581 37.483C107.353 37.5511 107.098 37.6108 106.814 37.6619C106.53 37.7131 106.248 37.7585 105.97 37.7983C105.691 37.8381 105.45 37.8722 105.245 37.9006C104.785 37.9631 104.373 38.0653 104.01 38.2074C103.646 38.3494 103.359 38.5483 103.149 38.804C102.939 39.054 102.834 39.3778 102.834 39.7756C102.834 40.3438 103.041 40.7727 103.456 41.0625C103.87 41.3523 104.399 41.4972 105.041 41.4972ZM115.751 43.5L115.734 40.9602H116.185C116.526 40.9602 116.813 40.8835 117.046 40.7301C117.279 40.5767 117.472 40.321 117.626 39.9631C117.779 39.5994 117.898 39.1108 117.984 38.4972C118.069 37.8835 118.128 37.1193 118.162 36.2045L118.393 30.4091H127.938V43.5H124.955V32.9403H121.197L120.992 37.1591C120.941 38.25 120.819 39.196 120.626 39.9972C120.438 40.7926 120.171 41.4489 119.824 41.9659C119.484 42.483 119.055 42.8693 118.537 43.125C118.02 43.375 117.41 43.5 116.705 43.5H115.751ZM139.155 43.7557C137.876 43.7557 136.768 43.4744 135.831 42.9119C134.893 42.3494 134.166 41.5625 133.649 40.5511C133.138 39.5398 132.882 38.358 132.882 37.0057C132.882 35.6534 133.138 34.4687 133.649 33.4517C134.166 32.4347 134.893 31.6449 135.831 31.0824C136.768 30.5199 137.876 30.2386 139.155 30.2386C140.433 30.2386 141.541 30.5199 142.479 31.0824C143.416 31.6449 144.141 32.4347 144.652 33.4517C145.169 34.4687 145.428 35.6534 145.428 37.0057C145.428 38.358 145.169 39.5398 144.652 40.5511C144.141 41.5625 143.416 42.3494 142.479 42.9119C141.541 43.4744 140.433 43.7557 139.155 43.7557ZM139.172 41.2841C139.865 41.2841 140.445 41.0937 140.911 40.7131C141.376 40.3267 141.723 39.8097 141.95 39.1619C142.183 38.5142 142.3 37.7926 142.3 36.9972C142.3 36.196 142.183 35.4716 141.95 34.8239C141.723 34.1705 141.376 33.6506 140.911 33.2642C140.445 32.8778 139.865 32.6847 139.172 32.6847C138.462 32.6847 137.871 32.8778 137.399 33.2642C136.933 33.6506 136.584 34.1705 136.351 34.8239C136.124 35.4716 136.01 36.196 136.01 36.9972C136.01 37.7926 136.124 38.5142 136.351 39.1619C136.584 39.8097 136.933 40.3267 137.399 40.7131C137.871 41.0937 138.462 41.2841 139.172 41.2841ZM159.105 30.4091V32.9403H153.463V43.5H150.446V30.4091H159.105Z" fill="white"/>
</svg>
