<svg width="210" height="70" viewBox="0 0 210 70" fill="none" xmlns="http://www.w3.org/2000/svg">
<rect x="1.5" y="1.5" width="207" height="67" rx="33.5" stroke="#C4A6EC" stroke-width="3"/>
<path d="M37.2216 43.5V26.0455H43.9034C45.1648 26.0455 46.2131 26.2443 47.0483 26.642C47.8892 27.0341 48.517 27.571 48.9318 28.2528C49.3523 28.9347 49.5625 29.7074 49.5625 30.571C49.5625 31.2812 49.4261 31.8892 49.1534 32.3949C48.8807 32.8949 48.5142 33.3011 48.054 33.6136C47.5938 33.9261 47.0795 34.1506 46.5114 34.2869V34.4574C47.1307 34.4915 47.7244 34.6818 48.2926 35.0284C48.8665 35.3693 49.3352 35.8523 49.6989 36.4773C50.0625 37.1023 50.2443 37.858 50.2443 38.7443C50.2443 39.6477 50.0256 40.4602 49.5881 41.1818C49.1506 41.8977 48.4915 42.4631 47.6108 42.8778C46.7301 43.2926 45.6222 43.5 44.2869 43.5H37.2216ZM40.3835 40.858H43.7841C44.9318 40.858 45.7585 40.6392 46.2642 40.2017C46.7756 39.7585 47.0312 39.1903 47.0312 38.4972C47.0312 37.9801 46.9034 37.5142 46.6477 37.0994C46.392 36.679 46.0284 36.3494 45.5568 36.1108C45.0852 35.8665 44.5227 35.7443 43.8693 35.7443H40.3835V40.858ZM40.3835 33.4688H43.5114C44.0568 33.4688 44.5483 33.3693 44.9858 33.1705C45.4233 32.9659 45.767 32.679 46.017 32.3097C46.2727 31.9347 46.4006 31.4915 46.4006 30.9801C46.4006 30.304 46.1619 29.7472 45.6847 29.3097C45.2131 28.8722 44.5114 28.6534 43.5795 28.6534H40.3835V33.4688ZM63.6118 43.5V30.4091H66.697V35.6932H67.822L71.7595 30.4091H75.4754L70.626 36.8352L75.5266 43.5H71.7936L68.2055 38.5653H66.697V43.5H63.6118ZM84.847 43.7557C83.5686 43.7557 82.4607 43.4744 81.5232 42.9119C80.5857 42.3494 79.8584 41.5625 79.3413 40.5511C78.83 39.5398 78.5743 38.358 78.5743 37.0057C78.5743 35.6534 78.83 34.4687 79.3413 33.4517C79.8584 32.4347 80.5857 31.6449 81.5232 31.0824C82.4607 30.5199 83.5686 30.2386 84.847 30.2386C86.1254 30.2386 87.2334 30.5199 88.1709 31.0824C89.1084 31.6449 89.8328 32.4347 90.3442 33.4517C90.8612 34.4687 91.1197 35.6534 91.1197 37.0057C91.1197 38.358 90.8612 39.5398 90.3442 40.5511C89.8328 41.5625 89.1084 42.3494 88.1709 42.9119C87.2334 43.4744 86.1254 43.7557 84.847 43.7557ZM84.8641 41.2841C85.5572 41.2841 86.1368 41.0937 86.6027 40.7131C87.0686 40.3267 87.4152 39.8097 87.6425 39.1619C87.8754 38.5142 87.9919 37.7926 87.9919 36.9972C87.9919 36.196 87.8754 35.4716 87.6425 34.8239C87.4152 34.1705 87.0686 33.6506 86.6027 33.2642C86.1368 32.8778 85.5572 32.6847 84.8641 32.6847C84.1538 32.6847 83.5629 32.8778 83.0913 33.2642C82.6254 33.6506 82.276 34.1705 82.043 34.8239C81.8158 35.4716 81.7021 36.196 81.7021 36.9972C81.7021 37.7926 81.8158 38.5142 82.043 39.1619C82.276 39.8097 82.6254 40.3267 83.0913 40.7131C83.5629 41.0937 84.1538 41.2841 84.8641 41.2841ZM96.1384 48.4091V30.4091H99.1724V32.5739H99.3514C99.5105 32.2557 99.7349 31.9176 100.025 31.5597C100.314 31.196 100.707 30.8864 101.201 30.6307C101.695 30.3693 102.326 30.2386 103.093 30.2386C104.104 30.2386 105.016 30.4972 105.829 31.0142C106.647 31.5256 107.295 32.2841 107.772 33.2898C108.255 34.2898 108.496 35.517 108.496 36.9716C108.496 38.4091 108.261 39.6307 107.789 40.6364C107.317 41.642 106.675 42.4091 105.863 42.9375C105.05 43.4659 104.13 43.7301 103.101 43.7301C102.351 43.7301 101.729 43.6051 101.235 43.3551C100.741 43.1051 100.343 42.804 100.042 42.4517C99.7463 42.0937 99.5162 41.7557 99.3514 41.4375H99.2236V48.4091H96.1384ZM99.1639 36.9545C99.1639 37.8011 99.2832 38.5426 99.5219 39.179C99.7662 39.8153 100.116 40.3125 100.57 40.6705C101.03 41.0227 101.587 41.1989 102.241 41.1989C102.922 41.1989 103.493 41.017 103.954 40.6534C104.414 40.2841 104.761 39.7812 104.993 39.1449C105.232 38.5028 105.351 37.7727 105.351 36.9545C105.351 36.142 105.235 35.4205 105.002 34.7898C104.769 34.1591 104.422 33.6648 103.962 33.3068C103.502 32.9489 102.928 32.7699 102.241 32.7699C101.582 32.7699 101.022 32.9432 100.562 33.2898C100.101 33.6364 99.752 34.1222 99.5134 34.7472C99.2804 35.3722 99.1639 36.108 99.1639 36.9545ZM112.814 39.9119H115.874C115.902 40.4006 116.121 40.7784 116.53 41.0455C116.939 41.3125 117.47 41.446 118.124 41.446C118.788 41.446 119.348 41.3011 119.803 41.0114C120.263 40.7159 120.493 40.2699 120.493 39.6733C120.493 39.321 120.405 39.0114 120.229 38.7443C120.053 38.4716 119.805 38.2614 119.487 38.1136C119.169 37.9659 118.794 37.892 118.362 37.892H116.359V35.7017H118.362C119.004 35.7017 119.49 35.554 119.82 35.2585C120.155 34.9631 120.322 34.5909 120.322 34.142C120.322 33.6591 120.146 33.267 119.794 32.9659C119.447 32.6648 118.967 32.5142 118.354 32.5142C117.74 32.5142 117.229 32.6534 116.82 32.9318C116.416 33.2102 116.206 33.5682 116.189 34.0057H113.146C113.158 33.2443 113.385 32.5824 113.828 32.0199C114.277 31.4574 114.879 31.0199 115.635 30.7074C116.396 30.3949 117.254 30.2386 118.209 30.2386C119.232 30.2386 120.115 30.392 120.859 30.6989C121.604 31.0057 122.178 31.4347 122.581 31.9858C122.984 32.5312 123.186 33.1733 123.186 33.9119C123.186 34.6222 122.964 35.2102 122.521 35.6761C122.078 36.1364 121.482 36.4659 120.732 36.6648V36.8011C121.249 36.8295 121.714 36.9773 122.129 37.2443C122.544 37.5057 122.874 37.8608 123.118 38.3097C123.362 38.7585 123.484 39.2784 123.484 39.8693C123.484 40.6705 123.254 41.3636 122.794 41.9489C122.334 42.5284 121.7 42.9744 120.893 43.2869C120.092 43.5994 119.175 43.7557 118.141 43.7557C117.135 43.7557 116.234 43.6051 115.439 43.304C114.649 42.9972 114.021 42.5568 113.555 41.983C113.089 41.4091 112.842 40.7187 112.814 39.9119ZM131.288 39.3239L136.529 30.4091H139.7V43.5H136.717V34.5767L131.492 43.5H128.313V30.4091H131.288V39.3239ZM154.26 35.6761V38.2074H147.288V35.6761H154.26ZM148.242 30.4091V43.5H145.268V30.4091H148.242ZM156.279 30.4091V43.5H153.313V30.4091H156.279ZM163.25 48.4091C162.829 48.4091 162.44 48.375 162.082 48.3068C161.73 48.2443 161.449 48.1705 161.238 48.0852L161.954 45.6818C162.403 45.8125 162.804 45.875 163.156 45.8693C163.508 45.8636 163.818 45.7528 164.085 45.5369C164.358 45.3267 164.588 44.9744 164.775 44.4801L165.039 43.7727L160.292 30.4091H163.565L166.582 40.2955H166.718L169.744 30.4091H173.025L167.784 45.0852C167.539 45.7784 167.216 46.3722 166.812 46.8665C166.409 47.3665 165.914 47.7472 165.329 48.0085C164.75 48.2756 164.057 48.4091 163.25 48.4091Z" fill="#C4A6EC"/>
</svg>
