<svg width="66" height="56" viewBox="0 0 66 56" fill="none" xmlns="http://www.w3.org/2000/svg">
<mask id="path-1-inside-1_98_1287" fill="white">
<path d="M32.7969 6.64176C41.646 -0.298331 52.046 -2.17562 59.0723 2.80778C68.4915 9.48874 68.28 25.969 58.5996 39.6173C53.0516 47.4393 45.5969 52.6322 38.4707 54.3839C29.0422 57.8058 15.9563 51.9949 7.40137 39.9338C-2.27912 26.2856 -2.49108 9.80542 6.92773 3.12418C13.8464 -1.78316 24.0374 -0.0390997 32.7969 6.64176Z"/>
</mask>
<path d="M32.7969 6.64176C41.646 -0.298331 52.046 -2.17562 59.0723 2.80778C68.4915 9.48874 68.28 25.969 58.5996 39.6173C53.0516 47.4393 45.5969 52.6322 38.4707 54.3839C29.0422 57.8058 15.9563 51.9949 7.40137 39.9338C-2.27912 26.2856 -2.49108 9.80542 6.92773 3.12418C13.8464 -1.78316 24.0374 -0.0390997 32.7969 6.64176Z" fill="white"/>
<path d="M32.7969 6.64176L30.9775 9.02714L32.8225 10.4343L34.6482 9.00238L32.7969 6.64176ZM59.0723 2.80778L60.8079 0.360807L60.8078 0.360766L59.0723 2.80778ZM58.5996 39.6173L61.0466 41.353L61.0466 41.3529L58.5996 39.6173ZM38.4707 54.3839L37.7546 51.4707L37.5984 51.5091L37.4472 51.5639L38.4707 54.3839ZM7.40137 39.9338L4.9544 41.6694L4.95441 41.6694L7.40137 39.9338ZM6.92773 3.12418L5.19213 0.677213L5.19203 0.677284L6.92773 3.12418ZM32.7969 6.64176L34.6482 9.00238C43.0079 2.44614 51.8765 1.3821 57.3367 5.25479L59.0723 2.80778L60.8078 0.360766C52.2155 -5.73333 40.2841 -3.0428 30.9455 4.28115L32.7969 6.64176ZM59.0723 2.80778L57.3367 5.25475C61.0128 7.86222 63.0755 12.5669 62.9986 18.5613C62.9218 24.5405 60.6856 31.4907 56.1526 37.8818L58.5996 39.6173L61.0466 41.3529C66.194 34.0956 68.9038 25.9815 68.9981 18.6383C69.0922 11.3102 66.5509 4.4343 60.8079 0.360807L59.0723 2.80778ZM58.5996 39.6173L56.1526 37.8817C50.9472 45.2207 44.0658 49.9192 37.7546 51.4707L38.4707 54.3839L39.1868 57.2972C47.1279 55.3452 55.1559 49.658 61.0466 41.353L58.5996 39.6173ZM38.4707 54.3839L37.4472 51.5639C33.6737 52.9334 28.882 52.5429 23.8596 50.2383C18.8621 47.9452 13.8499 43.8397 9.84833 38.1981L7.40137 39.9338L4.95441 41.6694C9.50781 48.089 15.316 52.9195 21.3573 55.6916C27.3737 58.4523 33.8392 59.2563 39.4942 57.204L38.4707 54.3839ZM7.40137 39.9338L9.84834 38.1981C5.31531 31.8072 3.07899 24.857 3.00206 18.8778C2.92494 12.8834 4.98744 8.17865 8.66344 5.57108L6.92773 3.12418L5.19203 0.677284C-0.550794 4.75095 -3.09172 11.6269 -2.99744 18.955C-2.90297 26.2981 -0.193057 34.4122 4.9544 41.6694L7.40137 39.9338ZM6.92773 3.12418L8.66334 5.57115C14.0407 1.75708 22.716 2.72605 30.9775 9.02714L32.7969 6.64176L34.6162 4.25639C25.3588 -2.80425 13.6522 -5.32341 5.19213 0.677213L6.92773 3.12418Z" fill="#C4A6EC" mask="url(#path-1-inside-1_98_1287)"/>
</svg>
