<svg width="78" height="65" viewBox="0 0 78 65" fill="none" xmlns="http://www.w3.org/2000/svg">
<mask id="path-1-inside-1_105_1969" fill="white">
<path d="M38.4277 7.78238C48.7966 -0.34977 60.983 -2.54925 69.2158 3.29019C80.2521 11.1185 80.0039 30.4284 68.6611 46.4201C62.1605 55.585 53.4259 61.6683 45.0762 63.7209C34.0287 67.7304 18.6957 60.9225 8.67188 46.7902C-2.67094 30.7983 -2.91846 11.4885 8.11816 3.66031C16.2248 -2.08958 28.1643 -0.0454886 38.4277 7.78238Z"/>
</mask>
<path d="M38.4277 7.78238C48.7966 -0.34977 60.983 -2.54925 69.2158 3.29019C80.2521 11.1185 80.0039 30.4284 68.6611 46.4201C62.1605 55.585 53.4259 61.6683 45.0762 63.7209C34.0287 67.7304 18.6957 60.9225 8.67188 46.7902C-2.67094 30.7983 -2.91846 11.4885 8.11816 3.66031C16.2248 -2.08958 28.1643 -0.0454886 38.4277 7.78238Z" fill="#C4A6EC"/>
<path d="M38.4277 7.78238L36.6084 10.1678L38.4534 11.5749L40.2791 10.143L38.4277 7.78238ZM69.2158 3.29019L70.9515 0.84326L70.9514 0.843221L69.2158 3.29019ZM68.6611 46.4201L71.1081 48.1557V48.1557L68.6611 46.4201ZM45.0762 63.7209L44.36 60.8076L44.2039 60.846L44.0527 60.9008L45.0762 63.7209ZM8.67188 46.7902L6.2249 48.5258H6.2249L8.67188 46.7902ZM8.11816 3.66031L6.38256 1.21333L6.38256 1.21334L8.11816 3.66031ZM38.4277 7.78238L40.2791 10.143C50.1584 2.39473 60.8134 1.00847 67.4802 5.73716L69.2158 3.29019L70.9514 0.843221C61.1526 -6.10697 47.4347 -3.09427 36.5764 5.42179L38.4277 7.78238ZM69.2158 3.29019L67.4802 5.73712C71.9649 8.91824 74.4227 14.6172 74.3309 21.7553C74.2393 28.8783 71.5783 37.1217 66.2142 44.6845L68.6611 46.4201L71.1081 48.1557C77.0867 39.7267 80.2212 30.3194 80.3304 21.8324C80.4393 13.3606 77.5031 5.49045 70.9515 0.84326L69.2158 3.29019ZM68.6611 46.4201L66.2142 44.6845C60.0563 53.3662 51.895 58.9553 44.36 60.8076L45.0762 63.7209L45.7923 66.6341C54.9567 64.3813 64.2647 57.8038 71.1081 48.1557L68.6611 46.4201ZM45.0762 63.7209L44.0527 60.9008C39.4696 62.5642 33.7114 62.0713 27.7413 59.332C21.7961 56.6042 15.8548 51.7317 11.1188 45.0546L8.67188 46.7902L6.2249 48.5258C11.5128 55.981 18.25 61.5786 25.2391 64.7854C32.2033 67.9808 39.6353 68.887 46.0997 66.5409L45.0762 63.7209ZM8.67188 46.7902L11.1188 45.0546C5.75467 37.4918 3.09389 29.2483 3.00248 22.1254C2.91089 14.9873 5.36888 9.28836 9.85377 6.10728L8.11816 3.66031L6.38256 1.21334C-0.169178 5.86041 -3.10573 13.7305 -2.99702 22.2024C-2.88812 30.6893 0.246269 40.0967 6.2249 48.5258L8.67188 46.7902ZM8.11816 3.66031L9.85376 6.10728C16.4189 1.45074 26.8428 2.71954 36.6084 10.1678L38.4277 7.78238L40.2471 5.397C29.4859 -2.81052 16.0306 -5.6299 6.38256 1.21333L8.11816 3.66031Z" fill="white" mask="url(#path-1-inside-1_105_1969)"/>
</svg>
