<svg width="95" height="95" viewBox="0 0 95 95" fill="none" xmlns="http://www.w3.org/2000/svg">
<rect width="95" height="95" rx="47.5" fill="#FFA5CC"/>
<mask id="path-2-outside-1_82_934" maskUnits="userSpaceOnUse" x="9.10736" y="10.184" width="76" height="74" fill="black">
<rect fill="white" x="9.10736" y="10.184" width="76" height="74"/>
<path d="M47.038 45.0864C51.4052 44.6913 57.1139 48.0413 61.2167 53.8335C66.3963 61.146 67.0551 69.5823 62.6874 72.6762C58.7594 75.4585 52.1057 72.9709 47.038 67.1235C41.9705 72.9706 35.3176 75.4582 31.3896 72.6762C27.022 69.5823 27.6798 61.1459 32.8593 53.8335C36.9619 48.0414 42.6709 44.6917 47.038 45.0864ZM20.4355 41.6118C21.5046 36.3964 24.8626 32.6786 27.9355 33.3081C31.0085 33.938 32.6335 38.6774 31.5644 43.893C30.4953 49.1085 27.1373 52.8255 24.0644 52.1958C20.9914 51.5658 19.3664 46.8274 20.4355 41.6118ZM67.0644 33.3081C70.1373 32.6784 73.4953 36.3963 74.5644 41.6118C75.6335 46.8274 74.0085 51.5658 70.9355 52.1958C67.8626 52.8254 64.5046 49.1084 63.4355 43.893C62.3664 38.6774 63.9914 33.938 67.0644 33.3081ZM33.6611 30.5991C34.8548 24.7761 38.4366 20.5917 41.6611 21.2524C44.8857 21.9134 46.5325 27.1703 45.3388 32.9936C44.1451 38.8166 40.5633 43.0011 37.3388 42.3403C34.1142 41.6793 32.4674 36.4224 33.6611 30.5991ZM53.3388 21.2524C56.5633 20.5915 60.1451 24.776 61.3388 30.5991C62.5325 36.4224 60.8857 41.6793 57.6611 42.3403C54.4366 43.001 50.8548 38.8166 49.6611 32.9936C48.4674 27.1703 50.1142 21.9134 53.3388 21.2524Z"/>
</mask>
<path d="M47.038 45.0864C51.4052 44.6913 57.1139 48.0413 61.2167 53.8335C66.3963 61.146 67.0551 69.5823 62.6874 72.6762C58.7594 75.4585 52.1057 72.9709 47.038 67.1235C41.9705 72.9706 35.3176 75.4582 31.3896 72.6762C27.022 69.5823 27.6798 61.1459 32.8593 53.8335C36.9619 48.0414 42.6709 44.6917 47.038 45.0864ZM20.4355 41.6118C21.5046 36.3964 24.8626 32.6786 27.9355 33.3081C31.0085 33.938 32.6335 38.6774 31.5644 43.893C30.4953 49.1085 27.1373 52.8255 24.0644 52.1958C20.9914 51.5658 19.3664 46.8274 20.4355 41.6118ZM67.0644 33.3081C70.1373 32.6784 73.4953 36.3963 74.5644 41.6118C75.6335 46.8274 74.0085 51.5658 70.9355 52.1958C67.8626 52.8254 64.5046 49.1084 63.4355 43.893C62.3664 38.6774 63.9914 33.938 67.0644 33.3081ZM33.6611 30.5991C34.8548 24.7761 38.4366 20.5917 41.6611 21.2524C44.8857 21.9134 46.5325 27.1703 45.3388 32.9936C44.1451 38.8166 40.5633 43.0011 37.3388 42.3403C34.1142 41.6793 32.4674 36.4224 33.6611 30.5991ZM53.3388 21.2524C56.5633 20.5915 60.1451 24.776 61.3388 30.5991C62.5325 36.4224 60.8857 41.6793 57.6611 42.3403C54.4366 43.001 50.8548 38.8166 49.6611 32.9936C48.4674 27.1703 50.1142 21.9134 53.3388 21.2524Z" fill="#FFA5CC"/>
<path d="M47.038 45.0864L46.1379 55.0458L47.0384 55.1272L47.9389 55.0457L47.038 45.0864ZM61.2167 53.8335L69.3771 48.0534L69.377 48.0532L61.2167 53.8335ZM62.6874 72.6762L68.4675 80.8365L68.4678 80.8363L62.6874 72.6762ZM47.038 67.1235L54.595 60.5742L47.0381 51.8547L39.4812 60.5741L47.038 67.1235ZM31.3896 72.6762L25.6092 80.8363L25.6099 80.8368L31.3896 72.6762ZM32.8593 53.8335L24.699 48.0533L24.699 48.0534L32.8593 53.8335ZM20.4355 41.6118L10.6392 39.6037L10.6392 39.6038L20.4355 41.6118ZM27.9355 33.3081L29.9436 23.5118L29.9423 23.5115L27.9355 33.3081ZM31.5644 43.893L41.3607 45.9012L41.3607 45.9011L31.5644 43.893ZM24.0644 52.1958L22.0563 61.9921L22.0567 61.9921L24.0644 52.1958ZM67.0644 33.3081L65.0571 23.5116L65.0563 23.5118L67.0644 33.3081ZM74.5644 41.6118L84.3607 39.6038L84.3607 39.6037L74.5644 41.6118ZM70.9355 52.1958L72.9428 61.9922L72.9436 61.9921L70.9355 52.1958ZM63.4355 43.893L53.6392 45.9011L53.6392 45.9012L63.4355 43.893ZM33.6611 30.5991L23.8648 28.5908L23.8648 28.591L33.6611 30.5991ZM41.6611 21.2524L43.6692 11.4561L43.6683 11.4559L41.6611 21.2524ZM45.3388 32.9936L55.1351 35.0019L55.1351 35.0017L45.3388 32.9936ZM37.3388 42.3403L35.3307 52.1366L35.3311 52.1367L37.3388 42.3403ZM53.3388 21.2524L51.3311 11.456L51.3307 11.4561L53.3388 21.2524ZM61.3388 30.5991L71.1351 28.591L71.1351 28.5908L61.3388 30.5991ZM57.6611 42.3403L59.6683 52.1368L59.6692 52.1366L57.6611 42.3403ZM49.6611 32.9936L39.8648 35.0017L39.8648 35.0019L49.6611 32.9936ZM47.038 45.0864L47.9389 55.0457C47.3223 55.1015 47.7008 54.875 49.0297 55.6833C50.239 56.4189 51.7156 57.7206 53.0565 59.6137L61.2167 53.8335L69.377 48.0532C66.6151 44.1542 63.1859 40.8848 59.4234 38.5961C55.7803 36.3802 51.1209 34.6762 46.1371 35.127L47.038 45.0864ZM61.2167 53.8335L53.0564 59.6135C54.7834 62.0516 55.4595 64.2934 55.5626 65.6151C55.6845 67.1763 55.0799 65.8104 56.9071 64.5161L62.6874 72.6762L68.4678 80.8363C74.6626 76.4481 75.9125 69.3171 75.502 64.0585C75.0728 58.5605 72.8297 52.9278 69.3771 48.0534L61.2167 53.8335ZM62.6874 72.6762L56.9074 64.5159C58.5397 63.3597 59.6436 64.0754 58.6815 63.7286C57.8159 63.4166 56.2472 62.4807 54.595 60.5742L47.038 67.1235L39.4811 73.6727C42.8965 77.6137 47.1884 80.8453 51.8987 82.5433C56.5124 84.2066 62.9071 84.775 68.4675 80.8365L62.6874 72.6762ZM47.038 67.1235L39.4812 60.5741C37.8289 62.4806 36.2602 63.4165 35.3949 63.7285C34.4331 64.0752 35.537 63.3596 37.1692 64.5156L31.3896 72.6762L25.6099 80.8368C31.1702 84.7748 37.5646 84.2064 42.1781 82.543C46.8881 80.8449 51.1797 77.6134 54.5949 73.6728L47.038 67.1235ZM31.3896 72.6762L37.17 64.5162C38.9967 65.8101 38.3923 67.1755 38.514 65.6144C38.6171 64.2928 39.2929 62.0513 41.0197 59.6135L32.8593 53.8335L24.699 48.0534C21.2462 52.9281 19.0034 58.561 18.5746 64.0592C18.1644 69.3179 19.4149 76.4484 25.6092 80.8363L31.3896 72.6762ZM32.8593 53.8335L41.0196 59.6136C42.3603 57.7207 43.8368 56.4192 45.0462 55.6835C46.3751 54.8752 46.7541 55.1015 46.1379 55.0458L47.038 45.0864L47.9381 35.127C42.9548 34.6766 38.2957 36.3804 34.6527 38.5963C30.8902 40.8848 27.4609 44.1542 24.699 48.0533L32.8593 53.8335ZM20.4355 41.6118L30.2318 43.6199C30.4712 42.4517 30.8898 41.9326 30.8551 41.9709C30.8242 42.0051 30.4775 42.3876 29.7001 42.7352C28.8581 43.1118 27.5141 43.4294 25.9287 43.1046L27.9355 33.3081L29.9423 23.5115C23.5243 22.1968 18.5842 25.7185 16.013 28.5653C13.2638 31.609 11.4688 35.5565 10.6392 39.6037L20.4355 41.6118ZM27.9355 33.3081L25.9274 43.1044C24.3419 42.7794 23.2312 41.9587 22.6051 41.2812C22.0271 40.6557 21.8587 40.1677 21.8438 40.1241C21.827 40.0751 22.0075 40.7169 21.7681 41.8849L31.5644 43.893L41.3607 45.9011C42.1904 41.8535 42.093 37.5178 40.7627 33.6377C39.5186 30.0088 36.3619 24.8274 29.9436 23.5118L27.9355 33.3081ZM31.5644 43.893L21.7681 41.8849C21.5286 43.0531 21.1102 43.5718 21.1452 43.533C21.1763 43.4986 21.5233 43.116 22.301 42.7684C23.1432 42.3918 24.4871 42.0745 26.0721 42.3994L24.0644 52.1958L22.0567 61.9921C28.4742 63.3074 33.4146 59.7868 35.9864 56.9397C38.7359 53.896 40.531 49.9484 41.3607 45.9012L31.5644 43.893ZM24.0644 52.1958L26.0725 42.3994C27.6575 42.7244 28.7682 43.5447 29.3943 44.2222C29.9725 44.8478 30.141 45.336 30.156 45.3799C30.173 45.4293 29.9924 44.7879 30.2318 43.6198L20.4355 41.6118L10.6392 39.6038C9.80954 43.6512 9.90687 47.9868 11.2373 51.8669C12.4818 55.4962 15.6388 60.6766 22.0563 61.9921L24.0644 52.1958ZM67.0644 33.3081L69.0716 43.1045C67.4862 43.4294 66.1421 43.1118 65.3 42.7352C64.5224 42.3875 64.1756 42.005 64.1447 41.9708C64.1101 41.9324 64.5286 42.4515 64.7681 43.6199L74.5644 41.6118L84.3607 39.6037C83.5311 35.5565 81.7361 31.609 78.9869 28.5652C76.4157 25.7184 71.4754 22.1965 65.0571 23.5116L67.0644 33.3081ZM74.5644 41.6118L64.7681 43.6198C65.0075 44.7879 64.8269 45.4293 64.8438 45.3799C64.8589 45.336 65.0274 44.8478 65.6055 44.2222C66.2317 43.5447 67.3424 42.7243 68.9274 42.3994L70.9355 52.1958L72.9436 61.9921C79.3611 60.6766 82.5181 55.4963 83.7626 51.8669C85.093 47.9868 85.1903 43.6512 84.3607 39.6038L74.5644 41.6118ZM70.9355 52.1958L68.9282 42.3993C70.5132 42.0745 71.8569 42.3918 72.6991 42.7683C73.4766 43.116 73.8236 43.4985 73.8546 43.5329C73.8896 43.5717 73.4712 43.053 73.2318 41.8849L63.4355 43.893L53.6392 45.9012C54.4688 49.9485 56.264 53.896 59.0135 56.9397C61.5853 59.7867 66.5255 63.3071 72.9428 61.9922L70.9355 52.1958ZM63.4355 43.893L73.2318 41.8849C72.9924 40.7169 73.1729 40.0751 73.1561 40.1241C73.1412 40.1677 72.9728 40.6557 72.3948 41.2812C71.7687 41.9587 70.658 42.7794 69.0725 43.1044L67.0644 33.3081L65.0563 23.5118C58.638 24.8274 55.4813 30.0088 54.2371 33.6377C52.9069 37.5178 52.8095 41.8535 53.6392 45.9011L63.4355 43.893ZM33.6611 30.5991L43.4573 32.6073C43.7796 31.0353 44.346 30.173 44.4966 29.997C44.5622 29.9204 44.2982 30.267 43.5693 30.6192C42.7693 31.0058 41.3644 31.3994 39.6538 31.0489L41.6611 21.2524L43.6683 11.4559C36.8673 10.0624 31.7904 14.085 29.3025 16.9917C26.5577 20.1985 24.7362 24.3399 23.8648 28.5908L33.6611 30.5991ZM41.6611 21.2524L39.653 31.0487C37.9421 30.698 36.8052 29.7833 36.2217 29.1131C35.6901 28.5025 35.5838 28.08 35.614 28.1763C35.6833 28.3976 35.8648 29.4134 35.5425 30.9855L45.3388 32.9936L55.1351 35.0017C56.0065 30.7505 55.9614 26.2261 54.6996 22.1979C53.5559 18.5469 50.471 12.8504 43.6692 11.4561L41.6611 21.2524ZM45.3388 32.9936L35.5425 30.9853C35.2202 32.5575 34.6539 33.4198 34.5032 33.5958C34.4377 33.6724 34.7017 33.3257 35.4307 32.9735C36.2309 32.5869 37.6358 32.1933 39.3465 32.5439L37.3388 42.3403L35.3311 52.1367C42.1324 53.5306 47.2095 49.5077 49.6974 46.601C52.4422 43.3942 54.2636 39.2527 55.1351 35.0019L45.3388 32.9936ZM37.3388 42.3403L39.3469 32.544C41.0578 32.8947 42.1947 33.8094 42.7781 34.4796C43.3098 35.0902 43.416 35.5127 43.3859 35.4163C43.3165 35.195 43.1351 34.1793 43.4574 32.6072L33.6611 30.5991L23.8648 28.591C22.9933 32.8422 23.0385 37.3665 24.3003 41.3948C25.444 45.0458 28.5289 50.7423 35.3307 52.1366L37.3388 42.3403ZM53.3388 21.2524L55.3466 31.0488C53.6359 31.3994 52.2309 31.0058 51.4308 30.6192C50.7017 30.2669 50.4377 29.9203 50.5032 29.9969C50.6538 30.1729 51.2202 31.0351 51.5425 32.6073L61.3388 30.5991L71.1351 28.5908C70.2636 24.3399 68.4423 20.1985 65.6974 16.9917C63.2095 14.0849 58.1324 10.0621 51.3311 11.456L53.3388 21.2524ZM61.3388 30.5991L51.5425 32.6072C51.8648 34.1793 51.6833 35.195 51.614 35.4163C51.5838 35.5127 51.6901 35.0902 52.2217 34.4796C52.8052 33.8094 53.9421 32.8947 55.653 32.544L57.6611 42.3403L59.6692 52.1366C66.471 50.7423 69.5559 45.0458 70.6996 41.3948C71.9614 37.3665 72.0065 32.8422 71.1351 28.591L61.3388 30.5991ZM57.6611 42.3403L55.6538 32.5438C57.3645 32.1933 58.7693 32.5869 59.5693 32.9735C60.2982 33.3257 60.5622 33.6723 60.4966 33.5957C60.346 33.4197 59.7796 32.5574 59.4573 30.9853L49.6611 32.9936L39.8648 35.0019C40.7363 39.2528 42.5577 43.3942 45.3025 46.601C47.7904 49.5076 52.8672 53.5303 59.6683 52.1368L57.6611 42.3403ZM49.6611 32.9936L59.4574 30.9855C59.1351 29.4134 59.3165 28.3976 59.3859 28.1763C59.416 28.08 59.3098 28.5025 58.7781 29.1131C58.1947 29.7833 57.0578 30.698 55.3469 31.0487L53.3388 21.2524L51.3307 11.4561C44.5289 12.8504 41.444 18.5469 40.3003 22.1979C39.0385 26.2261 38.9933 30.7505 39.8648 35.0017L49.6611 32.9936Z" fill="white" mask="url(#path-2-outside-1_82_934)"/>
</svg>
