<svg width="95" height="95" viewBox="0 0 95 95" fill="none" xmlns="http://www.w3.org/2000/svg">
<rect width="95" height="95" rx="47.5" fill="url(#paint0_linear_82_935)"/>
<mask id="path-2-outside-1_82_935" maskUnits="userSpaceOnUse" x="10.1069" y="10.1835" width="75" height="74" fill="black">
<rect fill="white" x="10.1069" y="10.1835" width="75" height="74"/>
<path d="M47.0375 45.0868C51.4047 44.6918 57.1134 48.0418 61.2162 53.8339C66.3958 61.1465 67.0547 69.5828 62.687 72.6767C58.7589 75.4586 52.105 72.9711 47.0375 67.1239C41.9701 72.9708 35.3171 75.4586 31.3891 72.6767C27.0217 69.5827 27.6795 61.1463 32.8588 53.8339C36.9613 48.042 42.6704 44.6924 47.0375 45.0868ZM20.436 41.6122C21.5051 36.3966 24.863 32.6786 27.936 33.3085C31.0088 33.9386 32.6328 38.6771 31.5639 43.8925C30.4948 49.1081 27.1369 52.8261 24.0639 52.1962C20.9911 51.5661 19.367 46.8276 20.436 41.6122ZM67.0639 33.3085C70.1369 32.6786 73.4948 36.3966 74.5639 41.6122C75.6329 46.8276 74.0088 51.5661 70.936 52.1962C67.863 52.8261 64.5051 49.1081 63.436 43.8925C62.367 38.6771 63.9911 33.9386 67.0639 33.3085ZM33.6616 30.5995C34.8553 24.7763 38.437 20.5919 41.6616 21.2529C44.8859 21.9141 46.5319 27.17 45.3383 32.9931C44.1446 38.8164 40.5629 43.0017 37.3383 42.3407C34.1139 41.6796 32.4679 36.4227 33.6616 30.5995ZM53.3383 21.2529C56.5629 20.5919 60.1446 24.7763 61.3383 30.5995C62.532 36.4227 60.886 41.6796 57.6616 42.3407C54.437 43.0017 50.8552 38.8164 49.6616 32.9931C48.468 27.17 50.114 21.9141 53.3383 21.2529Z"/>
</mask>
<path d="M47.0375 45.0868C51.4047 44.6918 57.1134 48.0418 61.2162 53.8339C66.3958 61.1465 67.0547 69.5828 62.687 72.6767C58.7589 75.4586 52.105 72.9711 47.0375 67.1239C41.9701 72.9708 35.3171 75.4586 31.3891 72.6767C27.0217 69.5827 27.6795 61.1463 32.8588 53.8339C36.9613 48.042 42.6704 44.6924 47.0375 45.0868ZM20.436 41.6122C21.5051 36.3966 24.863 32.6786 27.936 33.3085C31.0088 33.9386 32.6328 38.6771 31.5639 43.8925C30.4948 49.1081 27.1369 52.8261 24.0639 52.1962C20.9911 51.5661 19.367 46.8276 20.436 41.6122ZM67.0639 33.3085C70.1369 32.6786 73.4948 36.3966 74.5639 41.6122C75.6329 46.8276 74.0088 51.5661 70.936 52.1962C67.863 52.8261 64.5051 49.1081 63.436 43.8925C62.367 38.6771 63.9911 33.9386 67.0639 33.3085ZM33.6616 30.5995C34.8553 24.7763 38.437 20.5919 41.6616 21.2529C44.8859 21.9141 46.5319 27.17 45.3383 32.9931C44.1446 38.8164 40.5629 43.0017 37.3383 42.3407C34.1139 41.6796 32.4679 36.4227 33.6616 30.5995ZM53.3383 21.2529C56.5629 20.5919 60.1446 24.7763 61.3383 30.5995C62.532 36.4227 60.886 41.6796 57.6616 42.3407C54.437 43.0017 50.8552 38.8164 49.6616 32.9931C48.468 27.17 50.114 21.9141 53.3383 21.2529Z" fill="url(#paint1_linear_82_935)"/>
<path d="M47.0375 45.0868L46.1379 55.0463L47.0382 55.1276L47.9384 55.0462L47.0375 45.0868ZM61.2162 53.8339L69.3766 48.0538L69.3765 48.0537L61.2162 53.8339ZM62.687 72.6767L68.4665 80.8374L68.4671 80.8369L62.687 72.6767ZM47.0375 67.1239L54.5945 60.5747L47.0377 51.8552L39.4808 60.5745L47.0375 67.1239ZM31.3891 72.6767L25.6085 80.8366L25.6095 80.8373L31.3891 72.6767ZM32.8588 53.8339L24.6985 48.0538L24.6984 48.054L32.8588 53.8339ZM20.436 41.6122L10.6397 39.6041L10.6396 39.6043L20.436 41.6122ZM27.936 33.3085L29.9446 23.5123L29.9441 23.5122L27.936 33.3085ZM31.5639 43.8925L41.3602 45.9006L41.3603 45.9003L31.5639 43.8925ZM24.0639 52.1962L22.0552 61.9924L22.0558 61.9925L24.0639 52.1962ZM67.0639 33.3085L65.0558 23.5122L65.0553 23.5123L67.0639 33.3085ZM74.5639 41.6122L84.3603 39.6043L84.3602 39.6041L74.5639 41.6122ZM70.936 52.1962L72.9441 61.9925L72.9447 61.9924L70.936 52.1962ZM63.436 43.8925L53.6396 45.9003L53.6397 45.9006L63.436 43.8925ZM33.6616 30.5995L23.8653 28.5914L23.8653 28.5915L33.6616 30.5995ZM41.6616 21.2529L43.6706 11.4568L43.6696 11.4565L41.6616 21.2529ZM45.3383 32.9931L55.1346 35.0012L55.1346 35.0011L45.3383 32.9931ZM37.3383 42.3407L35.3296 52.1369L35.3302 52.1371L37.3383 42.3407ZM53.3383 21.2529L51.3302 11.4565L51.3292 11.4568L53.3383 21.2529ZM61.3383 30.5995L71.1346 28.5915L71.1346 28.5914L61.3383 30.5995ZM57.6616 42.3407L59.6696 52.1371L59.6703 52.1369L57.6616 42.3407ZM49.6616 32.9931L39.8652 35.0011L39.8653 35.0012L49.6616 32.9931ZM47.0375 45.0868L47.9384 55.0462C47.3218 55.102 47.7004 54.8755 49.0292 55.6838C50.2385 56.4194 51.7151 57.721 53.056 59.6141L61.2162 53.8339L69.3765 48.0537C66.6146 44.1547 63.1854 40.8852 59.4229 38.5966C55.7798 36.3806 51.1204 34.6767 46.1366 35.1275L47.0375 45.0868ZM61.2162 53.8339L53.0559 59.614C54.7829 62.0522 55.459 64.2939 55.5622 65.6156C55.6841 67.1768 55.0795 65.8108 56.9068 64.5164L62.687 72.6767L68.4671 80.8369C74.6622 76.4487 75.912 69.3176 75.5015 64.059C75.0723 58.5609 72.8292 52.9282 69.3766 48.0538L61.2162 53.8339ZM62.687 72.6767L56.9074 64.516C58.5396 63.36 59.6431 64.0757 58.6808 63.7288C57.8152 63.4168 56.2465 62.4809 54.5945 60.5747L47.0375 67.1239L39.4806 73.6732C42.8961 77.6142 47.188 80.8456 51.8982 82.5436C56.5118 84.2068 62.9062 84.7752 68.4665 80.8374L62.687 72.6767ZM47.0375 67.1239L39.4808 60.5745C37.8285 62.4809 36.2598 63.4168 35.3943 63.7289C34.4324 64.0757 35.5363 63.3599 37.1687 64.5161L31.3891 72.6767L25.6095 80.8373C31.1698 84.7754 37.5642 84.2067 42.1777 82.5434C46.8876 80.8453 51.1791 77.6138 54.5943 73.6734L47.0375 67.1239ZM31.3891 72.6767L37.1697 64.5168C38.9964 65.8108 38.3919 67.1761 38.5137 65.6148C38.6167 64.2931 39.2926 62.0516 41.0192 59.6139L32.8588 53.8339L24.6984 48.054C21.2458 52.9286 19.003 58.5615 18.5742 64.0596C18.1641 69.3181 19.4144 76.4486 25.6085 80.8366L31.3891 72.6767ZM32.8588 53.8339L41.0191 59.614C42.3598 57.7213 43.8362 56.4198 45.0456 55.6842C46.3745 54.8758 46.7538 55.1019 46.1379 55.0463L47.0375 45.0868L47.9372 35.1274C42.9542 34.6773 38.2953 36.3809 34.6523 38.5968C30.8898 40.8853 27.4604 44.1546 24.6985 48.0538L32.8588 53.8339ZM20.436 41.6122L30.2323 43.6203C30.4718 42.4518 30.8904 41.9326 30.8557 41.971C30.8248 42.0052 30.4778 42.3879 29.7001 42.7357C28.8577 43.1123 27.5135 43.4298 25.9279 43.1048L27.936 33.3085L29.9441 23.5122C23.5253 22.1965 18.5847 25.7186 16.0133 28.5656C13.2642 31.6094 11.4693 35.5571 10.6397 39.6041L20.436 41.6122ZM27.936 33.3085L25.9274 43.1047C24.3421 42.7797 23.2313 41.959 22.605 41.2813C22.0268 40.6555 21.8584 40.1672 21.8434 40.1234C21.8265 40.0742 22.0071 40.7161 21.7675 41.8847L31.5639 43.8925L41.3603 45.9003C42.1897 41.8536 42.0927 37.5184 40.7628 33.6386C39.5189 30.0095 36.3626 24.8283 29.9446 23.5123L27.936 33.3085ZM31.5639 43.8925L21.7676 41.8844C21.5281 43.053 21.1095 43.5722 21.1442 43.5337C21.1751 43.4995 21.522 43.1168 22.2998 42.7691C23.1422 42.3924 24.4864 42.0749 26.072 42.3999L24.0639 52.1962L22.0558 61.9925C28.4746 63.3083 33.4152 59.7861 35.9865 56.9391C38.7357 53.8953 40.5306 49.9477 41.3602 45.9006L31.5639 43.8925ZM24.0639 52.1962L26.0726 42.4C27.6578 42.7251 28.7686 43.5457 29.3949 44.2234C29.9731 44.8492 30.1415 45.3375 30.1565 45.3813C30.1734 45.4305 29.9928 44.7887 30.2323 43.6201L20.436 41.6122L10.6396 39.6043C9.81019 43.6511 9.90716 47.9863 11.237 51.8662C12.481 55.4953 15.6373 60.6764 22.0552 61.9924L24.0639 52.1962ZM67.0639 33.3085L69.072 43.1048C67.4864 43.4298 66.1422 43.1123 65.2998 42.7357C64.522 42.3879 64.1751 42.0052 64.1442 41.971C64.1095 41.9326 64.5281 42.4518 64.7676 43.6203L74.5639 41.6122L84.3602 39.6041C83.5306 35.5571 81.7357 31.6094 78.9865 28.5656C76.4152 25.7186 71.4746 22.1965 65.0558 23.5122L67.0639 33.3085ZM74.5639 41.6122L64.7676 43.6201C65.0071 44.7887 64.8265 45.4305 64.8434 45.3813C64.8584 45.3375 65.0268 44.8491 65.605 44.2234C66.2313 43.5457 67.342 42.7251 68.9273 42.4L70.936 52.1962L72.9447 61.9924C79.3626 60.6764 82.5189 55.4953 83.7628 51.8662C85.0927 47.9863 85.1897 43.6511 84.3603 39.6043L74.5639 41.6122ZM70.936 52.1962L68.9279 42.3999C70.5135 42.0749 71.8577 42.3924 72.7001 42.7691C73.4778 43.1168 73.8248 43.4995 73.8557 43.5337C73.8904 43.5722 73.4718 43.053 73.2323 41.8844L63.436 43.8925L53.6397 45.9006C54.4693 49.9477 56.2642 53.8953 59.0133 56.9391C61.5847 59.7861 66.5253 63.3083 72.9441 61.9925L70.936 52.1962ZM63.436 43.8925L73.2323 41.8847C72.9928 40.716 73.1734 40.0742 73.1565 40.1234C73.1415 40.1672 72.9731 40.6555 72.3949 41.2813C71.7686 41.959 70.6578 42.7797 69.0725 43.1047L67.0639 33.3085L65.0553 23.5123C58.6373 24.8282 55.4809 30.0095 54.237 33.6386C52.9072 37.5184 52.8102 41.8536 53.6396 45.9003L63.436 43.8925ZM33.6616 30.5995L43.4578 32.6077C43.7802 31.0354 44.3465 30.1731 44.4971 29.9972C44.5626 29.9207 44.2985 30.2674 43.5694 30.6197C42.7691 31.0063 41.3641 31.3998 39.6535 31.0492L41.6616 21.2529L43.6696 11.4565C36.8682 10.0624 31.791 14.0851 29.3029 16.992C26.558 20.1989 24.7367 24.3405 23.8653 28.5914L33.6616 30.5995ZM41.6616 21.2529L39.6525 31.049C37.9419 30.6981 36.8052 29.7835 36.2216 29.1132C35.6899 28.5024 35.5836 28.0798 35.6137 28.1759C35.6829 28.3969 35.8643 29.4126 35.542 30.9851L45.3383 32.9931L55.1346 35.0011C56.0059 30.7506 55.9611 26.2267 54.6996 22.1987C53.5561 18.5474 50.4717 12.8516 43.6706 11.4568L41.6616 21.2529ZM45.3383 32.9931L35.542 30.985C35.2197 32.5575 34.6532 33.4202 34.5024 33.5964C34.4367 33.6732 34.7007 33.3265 35.4298 32.9741C36.23 32.5874 37.6353 32.1937 39.3464 32.5444L37.3383 42.3407L35.3302 52.1371C42.1326 53.5314 47.2099 49.5073 49.6975 46.6006C52.4421 43.3936 54.2633 39.252 55.1346 35.0012L45.3383 32.9931ZM37.3383 42.3407L39.347 32.5446C41.0581 32.8954 42.195 33.8103 42.7785 34.4807C43.3101 35.0915 43.4164 35.514 43.3862 35.4176C43.3169 35.1962 43.1355 34.1802 43.4579 32.6076L33.6616 30.5995L23.8653 28.5915C22.9939 32.8421 23.0387 37.3661 24.3001 41.3942C25.4433 45.0451 28.5276 50.7422 35.3296 52.1369L37.3383 42.3407ZM53.3383 21.2529L55.3464 31.0492C53.6358 31.3998 52.2308 31.0063 51.4305 30.6197C50.7014 30.2674 50.4373 29.9207 50.5028 29.9972C50.6533 30.1731 51.2197 31.0354 51.542 32.6077L61.3383 30.5995L71.1346 28.5914C70.2632 24.3405 68.4419 20.1989 65.697 16.992C63.2089 14.0851 58.1317 10.0624 51.3302 11.4565L53.3383 21.2529ZM61.3383 30.5995L51.542 32.6076C51.8644 34.1802 51.683 35.1962 51.6137 35.4176C51.5835 35.514 51.6897 35.0915 52.2214 34.4807C52.8049 33.8103 53.9418 32.8954 55.6529 32.5446L57.6616 42.3407L59.6703 52.1369C66.4723 50.7422 69.5566 45.0451 70.6998 41.3942C71.9611 37.3661 72.0059 32.8421 71.1346 28.5915L61.3383 30.5995ZM57.6616 42.3407L55.6535 32.5444C57.3646 32.1937 58.7699 32.5874 59.5701 32.9741C60.2992 33.3265 60.5632 33.6732 60.4975 33.5964C60.3467 33.4202 59.7802 32.5575 59.4579 30.985L49.6616 32.9931L39.8653 35.0012C40.7366 39.252 42.5578 43.3936 45.3024 46.6006C47.79 49.5073 52.8673 53.5314 59.6696 52.1371L57.6616 42.3407ZM49.6616 32.9931L59.4579 30.9851C59.1356 29.4126 59.317 28.3969 59.3862 28.1759C59.4163 28.0798 59.31 28.5024 58.7783 29.1132C58.1947 29.7835 57.0579 30.6981 55.3474 31.049L53.3383 21.2529L51.3292 11.4568C44.5282 12.8516 41.4437 18.5474 40.3003 22.1987C39.0388 26.2267 38.994 30.7506 39.8652 35.0011L49.6616 32.9931Z" fill="white" mask="url(#path-2-outside-1_82_935)"/>
<defs>
<linearGradient id="paint0_linear_82_935" x1="47.5" y1="0" x2="47.5" y2="95" gradientUnits="userSpaceOnUse">
<stop stop-color="#FFA5CC"/>
<stop offset="1" stop-color="#C4A6EC"/>
</linearGradient>
<linearGradient id="paint1_linear_82_935" x1="47.5" y1="21.1835" x2="47.5" y2="73.8165" gradientUnits="userSpaceOnUse">
<stop stop-color="#FFA5CC"/>
<stop offset="1" stop-color="#C4A6EC"/>
</linearGradient>
</defs>
</svg>
