<svg width="537" height="81" viewBox="0 0 537 81" fill="none" xmlns="http://www.w3.org/2000/svg">
<rect x="1.5" y="1.5" width="534" height="78" rx="39" stroke="#FFA5CC" stroke-width="3"/>
<path d="M498.5 17C509.822 17 519 26.1782 519 37.5C519 48.8218 509.822 58 498.5 58C493.665 58 489.221 56.3254 485.716 53.5254L475.121 64.1211L473 62L483.514 51.4854C480.094 47.8226 478 42.9063 478 37.5C478 26.1782 487.178 17 498.5 17ZM498.5 20C488.835 20 481 27.835 481 37.5C481 47.165 488.835 55 498.5 55C508.165 55 516 47.165 516 37.5C516 27.835 508.165 20 498.5 20Z" fill="#FFA5CC"/>
</svg>
