<svg width="537" height="81" viewBox="0 0 537 81" fill="none" xmlns="http://www.w3.org/2000/svg">
<rect x="1.5" y="1.5" width="534" height="78" rx="39" stroke="#C4A6EC" stroke-width="3"/>
<path d="M498.5 17C509.822 17 519 26.1782 519 37.5C519 48.8218 509.822 58 498.5 58C493.665 58 489.221 56.3254 485.716 53.5254L475.121 64.1211L473 62L483.514 51.4854C480.094 47.8226 478 42.9063 478 37.5C478 26.1782 487.178 17 498.5 17ZM498.5 20C488.835 20 481 27.835 481 37.5C481 47.165 488.835 55 498.5 55C508.165 55 516 47.165 516 37.5C516 27.835 508.165 20 498.5 20Z" fill="#C4A6EC"/>
<path d="M45.5625 31.5455V49H42.9375V33.7955H34.7216V49H32.0966V31.5455H45.5625ZM54.8991 49.2642C53.6719 49.2642 52.6009 48.983 51.6861 48.4205C50.7713 47.858 50.0611 47.071 49.5554 46.0597C49.0497 45.0483 48.7969 43.8665 48.7969 42.5142C48.7969 41.1562 49.0497 39.9687 49.5554 38.9517C50.0611 37.9347 50.7713 37.1449 51.6861 36.5824C52.6009 36.0199 53.6719 35.7386 54.8991 35.7386C56.1264 35.7386 57.1974 36.0199 58.1122 36.5824C59.027 37.1449 59.7372 37.9347 60.2429 38.9517C60.7486 39.9687 61.0014 41.1562 61.0014 42.5142C61.0014 43.8665 60.7486 45.0483 60.2429 46.0597C59.7372 47.071 59.027 47.858 58.1122 48.4205C57.1974 48.983 56.1264 49.2642 54.8991 49.2642ZM54.9077 47.125C55.7031 47.125 56.3622 46.9148 56.8849 46.4943C57.4077 46.0739 57.794 45.5142 58.044 44.8153C58.2997 44.1165 58.4276 43.3466 58.4276 42.5057C58.4276 41.6705 58.2997 40.9034 58.044 40.2045C57.794 39.5 57.4077 38.9347 56.8849 38.5085C56.3622 38.0824 55.7031 37.8693 54.9077 37.8693C54.1065 37.8693 53.4418 38.0824 52.9134 38.5085C52.3906 38.9347 52.0014 39.5 51.7457 40.2045C51.4957 40.9034 51.3707 41.6705 51.3707 42.5057C51.3707 43.3466 51.4957 44.1165 51.7457 44.8153C52.0014 45.5142 52.3906 46.0739 52.9134 46.4943C53.4418 46.9148 54.1065 47.125 54.9077 47.125ZM66.343 45.429L72.1129 35.9091H74.8572V49H72.3601V39.4716L66.6158 49H63.8459V35.9091H66.343V45.429ZM83.7976 49.2642C82.5305 49.2642 81.4396 48.9773 80.5249 48.4034C79.6158 47.8239 78.9169 47.0256 78.4283 46.0085C77.9396 44.9915 77.6953 43.8267 77.6953 42.5142C77.6953 41.1847 77.9453 40.0114 78.4453 38.9943C78.9453 37.9716 79.6499 37.1733 80.5589 36.5994C81.468 36.0256 82.5391 35.7386 83.772 35.7386C84.7663 35.7386 85.6527 35.9233 86.4311 36.2926C87.2095 36.6562 87.8374 37.1676 88.3146 37.8267C88.7976 38.4858 89.0845 39.2557 89.1754 40.1364H86.6953C86.5589 39.5227 86.2464 38.9943 85.7578 38.5511C85.2749 38.108 84.6271 37.8864 83.8146 37.8864C83.1044 37.8864 82.4822 38.0739 81.9482 38.4489C81.4197 38.8182 81.0078 39.3466 80.7124 40.0341C80.4169 40.7159 80.2692 41.5227 80.2692 42.4545C80.2692 43.4091 80.4141 44.233 80.7038 44.9261C80.9936 45.6193 81.4027 46.1562 81.9311 46.5369C82.4652 46.9176 83.093 47.108 83.8146 47.108C84.2976 47.108 84.7351 47.0199 85.1271 46.8438C85.5249 46.6619 85.8572 46.4034 86.1243 46.0682C86.397 45.733 86.5874 45.3295 86.6953 44.858H89.1754C89.0845 45.7045 88.8089 46.4602 88.3487 47.125C87.8885 47.7898 87.272 48.3125 86.4993 48.6932C85.7322 49.0739 84.8317 49.2642 83.7976 49.2642ZM91.9006 49V35.9091H94.4489V41.3977H95.6761L99.9972 35.9091H103.151L98.0795 42.2756L103.21 49H100.048L96.1023 43.767H94.4489V49H91.9006ZM106.869 49.1619C106.403 49.1619 106.002 48.9972 105.667 48.6676C105.332 48.3324 105.164 47.929 105.164 47.4574C105.164 46.9915 105.332 46.5937 105.667 46.2642C106.002 45.929 106.403 45.7614 106.869 45.7614C107.335 45.7614 107.735 45.929 108.07 46.2642C108.406 46.5937 108.573 46.9915 108.573 47.4574C108.573 47.7699 108.494 48.0568 108.335 48.3182C108.181 48.5739 107.977 48.7784 107.721 48.9318C107.465 49.0852 107.181 49.1619 106.869 49.1619ZM113.665 49.1619C113.2 49.1619 112.799 48.9972 112.464 48.6676C112.129 48.3324 111.961 47.929 111.961 47.4574C111.961 46.9915 112.129 46.5937 112.464 46.2642C112.799 45.929 113.2 45.7614 113.665 45.7614C114.131 45.7614 114.532 45.929 114.867 46.2642C115.202 46.5937 115.37 46.9915 115.37 47.4574C115.37 47.7699 115.29 48.0568 115.131 48.3182C114.978 48.5739 114.773 48.7784 114.518 48.9318C114.262 49.0852 113.978 49.1619 113.665 49.1619ZM120.462 49.1619C119.996 49.1619 119.596 48.9972 119.261 48.6676C118.925 48.3324 118.758 47.929 118.758 47.4574C118.758 46.9915 118.925 46.5937 119.261 46.2642C119.596 45.929 119.996 45.7614 120.462 45.7614C120.928 45.7614 121.329 45.929 121.664 46.2642C121.999 46.5937 122.167 46.9915 122.167 47.4574C122.167 47.7699 122.087 48.0568 121.928 48.3182C121.775 48.5739 121.57 48.7784 121.315 48.9318C121.059 49.0852 120.775 49.1619 120.462 49.1619Z" fill="#C4A6EC"/>
</svg>
